<svg xmlns="http://www.w3.org/2000/svg" viewBox="0 0 100.25 100.25" style="enable-background:new 0 0 100.25 100.25" xml:space="preserve"><path d="M21.5 71.25h2.649L20.73 82.747a1.5 1.5 0 1 0 2.876.855l3.673-12.353h10.394l3.673 12.353a1.501 1.501 0 0 0 2.876-.855L40.803 71.25H43.5a1.5 1.5 0 1 0 0-3h-3.589l-2.877-9.675a1.527 1.527 0 0 0-.105-.256c3.067-1.567 5.176-4.751 5.176-8.426 0-4.402-3.026-8.102-7.105-9.153v-6.99a1.5 1.5 0 1 0-3 0v6.713c-4.918.333-8.821 4.429-8.821 9.43 0 3.574 1.992 6.689 4.923 8.299a1.474 1.474 0 0 0-.184.383l-2.877 9.675H21.5a1.5 1.5 0 1 0 0 3zm4.679-21.357c0-3.563 2.899-6.463 6.463-6.463s6.463 2.899 6.463 6.463-2.899 6.463-6.463 6.463-6.463-2.899-6.463-6.463zm4.615 9.538c.025-.083.038-.167.048-.251a9.447 9.447 0 0 0 1.8.177c.504 0 .995-.051 1.478-.127.01.067.018.134.038.201l2.623 8.819h-8.609l2.622-8.819zM53.5 84.25h8a1.5 1.5 0 0 0 1.5-1.5V42.745c0-.195-.038-.388-.112-.568l-4-9.769a1.5 1.5 0 0 0-2.776 0l-4 9.769a1.484 1.484 0 0 0-.112.602V82.75a1.5 1.5 0 0 0 1.5 1.5zm1.5-3v-3h5v3h-5zm2.5-44.315 2.5 6.106V75.25h-5V43.041l2.5-6.106z"/><path d="M72.5 16.25h-60a1.5 1.5 0 0 0-1.5 1.5v77a1.5 1.5 0 0 0 1.5 1.5h60a1.5 1.5 0 0 0 1.5-1.5v-77a1.5 1.5 0 0 0-1.5-1.5zm-1.5 77H14v-74h57v74z"/><path d="M84.5 4.25h-60a1.5 1.5 0 0 0-1.5 1.5v8a1.5 1.5 0 1 0 3 0v-6.5h57v74h-5.5a1.5 1.5 0 0 0 0 3h7a1.5 1.5 0 0 0 1.5-1.5v-77a1.5 1.5 0 0 0-1.5-1.5z"/></svg>