<svg xmlns="http://www.w3.org/2000/svg" viewBox="0 0 100.75 100.75" style="enable-background:new 0 0 100.75 100.75" xml:space="preserve"><path d="M93.328 70.679c-.189-5.377-1.865-11.855-4.717-18.24-2.852-6.391-6.557-11.965-10.433-15.695-4.168-4.012-8.155-5.481-11.241-4.151-.025.01-.051.014-.076.025l-3.62 1.617v-8.492l.002-.036c0-6.717-11.59-11.782-26.96-11.782-15.338 0-26.91 5.045-26.958 11.741 0 .014-.004.027-.004.042v15.18c0 .08.011.158.024.234a1.396 1.396 0 0 0-.024.234c0 .137.012.271.022.406-.011.072-.022.143-.022.218v15.18c0 .081.011.159.024.236a1.409 1.409 0 0 0-.024.236c0 .171.013.34.027.508a1.434 1.434 0 0 0-.027.272v15.18c0 .08.011.158.024.234a1.396 1.396 0 0 0-.024.234c0 6.716 11.592 11.78 26.964 11.78 9.765 0 18.664-2.228 23.348-5.75 4.192 5.442 8.702 8.65 12.479 8.65a5.97 5.97 0 0 0 2.458-.511l14.235-6.359.043-.016c3.095-1.381 4.686-5.35 4.48-11.175zM53.006 38.807l-.432.19c-2.973 1.329-4.475 4.993-4.525 10.012-3.59.785-7.614 1.218-11.763 1.218-14.178 0-24.058-4.675-24.058-8.872 0-.08-.011-.158-.024-.234.013-.077.024-.154.024-.234v-9.693c4.368 3.803 13.28 6.295 24.056 6.295 10.773 0 19.682-2.49 24.052-6.292v4.336l-7.33 3.274zM12.204 57.396c.013-.077.024-.155.024-.236V46.842c4.37 3.801 13.282 6.292 24.058 6.292 4.158 0 8.229-.399 11.89-1.157.335 3.691 1.324 7.91 2.971 12.368-4.408 1.427-9.395 2.158-14.861 2.158-14.178 0-24.058-4.675-24.058-8.87 0-.082-.011-.16-.024-.237zm24.08-40.565c14.163 0 24.035 4.669 24.053 8.865l-.001.011v.027c-.042 4.191-9.907 8.849-24.052 8.849-14.176 0-24.054-4.678-24.054-8.876s9.878-8.876 24.054-8.876zm.002 66.104c-14.178 0-24.058-4.677-24.058-8.874 0-.08-.011-.158-.024-.234.013-.077.024-.154.024-.234V63.118c4.37 3.801 13.282 6.291 24.058 6.291 5.842 0 11.188-.799 15.929-2.358.191.455.388.912.593 1.37 1.554 3.478 3.301 6.603 5.138 9.316-4.096 3.137-12.56 5.198-21.66 5.198zm37.497 2.459-.411.189c-3.839 1.704-12.13-5.408-17.911-18.348-5.775-12.944-5.531-23.873-1.707-25.582l9.301-4.153c-.526 1.737-.761 3.85-.674 6.295.189 5.376 1.865 11.856 4.718 18.247 2.852 6.388 6.557 11.959 10.433 15.689 1.767 1.699 3.497 2.925 5.144 3.693l-8.893 3.97zm13.886-6.196-.007.002-.01.004c-1.914.846-4.87-.453-8.105-3.567-3.613-3.477-7.092-8.726-9.794-14.78-2.704-6.057-4.291-12.152-4.468-17.164-.158-4.498.85-7.566 2.766-8.42a3.115 3.115 0 0 1 1.278-.257c1.84 0 4.246 1.331 6.834 3.821 3.613 3.477 7.091 8.728 9.794 14.786 2.704 6.052 4.29 12.146 4.467 17.158.159 4.492-.846 7.559-2.755 8.417z"/></svg>