<svg xmlns="http://www.w3.org/2000/svg" viewBox="0 0 100.25 100.25" style="enable-background:new 0 0 100.25 100.25" xml:space="preserve"><path d="M94.879 67.116c-.284-.282-.663-.458-1.069-.435l-6.467.058h-13.02v-6.5a1.5 1.5 0 0 0-1.5-1.5h-31a1.5 1.5 0 0 0-1.5 1.5v28a1.5 1.5 0 0 0 1.5 1.5h6.128c.257 3.075 2.838 5.5 5.979 5.5 3.136 0 5.712-2.425 5.969-5.5h12.924c.176 0 .343-.036.5-.092.157.056.324.092.5.092h4.355c.257 3.075 2.839 5.5 5.98 5.5 3.136 0 5.712-2.425 5.969-5.5h3.696a1.5 1.5 0 0 0 1.5-1.5V68.181c.001-.4-.16-.783-.444-1.065zM43.324 61.74h28v25H59.375c-.948-2.067-3.029-3.508-5.444-3.508a6.007 6.007 0 0 0-5.454 3.508h-5.153v-25zm10.607 30.5a3.007 3.007 0 0 1-3.005-3.002 3.008 3.008 0 0 1 3.005-3.005 3.003 3.003 0 0 1 2.994 3.005 3.002 3.002 0 0 1-2.994 3.002zm30.228 0a3.008 3.008 0 0 1-3.006-3.002c0-.133.022-.26.039-.388.075-.169.118-.355.126-.55a3 3 0 0 1 2.841-2.067 3.003 3.003 0 0 1 2.994 3.005 3.002 3.002 0 0 1-2.994 3.002zm8.165-5.5h-2.721c-.948-2.067-3.029-3.508-5.444-3.508a6.008 6.008 0 0 0-5.455 3.508h-4.38v-17h13.033l4.967-.044V86.74z"/><path d="M35.228 47.328c4.383 0 8.592.956 12.511 2.84a1.5 1.5 0 1 0 1.301-2.704 31.625 31.625 0 0 0-13.812-3.136c-17.597 0-31.913 14.315-31.913 31.912a1.5 1.5 0 0 0 1.5 1.5h28.009a1.5 1.5 0 1 0 0-3H6.353c.783-15.248 13.435-27.412 28.875-27.412zm-.534-5.836c10.169 0 18.442-8.272 18.442-18.439S44.863 4.615 34.694 4.615c-10.165 0-18.435 8.271-18.435 18.438s8.27 18.439 18.435 18.439zm0-33.878c8.515 0 15.442 6.926 15.442 15.438 0 8.513-6.928 15.439-15.442 15.439-8.511 0-15.435-6.926-15.435-15.439 0-8.512 6.924-15.438 15.435-15.438z"/></svg>