<svg version="1.0" id="Слой_1" xmlns="http://www.w3.org/2000/svg" x="0" y="0" viewBox="0 0 210 210" style="enable-background:new 0 0 210 210" xml:space="preserve"><style>.st0{fill:red}</style><path class="st0" d="m2.3 103.5.3-3.3c.4-9.5 2.1-18.9 5.2-27.9 4.9-14.4 12.6-27.1 23.1-38.1 14-14.5 30.7-24.3 50.4-29 7.6-1.8 15.3-2.7 23.1-2.8 14.6-.1 28.6 2.7 42 8.6 13.2 5.8 24.6 14 34.4 24.6 11 12 18.8 25.9 23.2 41.6 1.5 5.3 2.5 10.7 3.1 16.2.3 2.7.5 5.4.5 8.1 0 .4.1.8.1 1.2v4.9c0 .3-.1.7-.1 1-.7 22.9-8.4 43.2-22.7 61-11.3 14-25.3 24.3-42 30.9-7.6 3-15.5 5.1-23.6 6.2-6.4.9-12.9 1.2-19.4.8C75 206 53.3 196.9 35 179.9c-14.3-13.3-24-29.5-29.1-48.4-1.3-4.9-2.3-9.9-2.8-15-.3-3-.5-6-.7-9.1 0-.3-.1-.6-.1-.9v-3zM105.1 8.4c-53.2 0-96.5 43.2-96.6 96.3-.2 53.3 43.3 96.8 96.5 96.9 53.2 0 96.7-43.3 96.7-96.6 0-53.1-43.3-96.6-96.6-96.6z"/><path class="st0" d="M100.9 104.9c-.4-.3-.6-.5-.9-.7L66.7 70.9l-.7-.7c-1-1.2-.9-2.9.1-4s2.7-1.2 3.9-.4c.3.2.5.4.7.7C82 77.7 93.2 88.8 104.4 100c.2.2.4.5.6.8.4-.4.6-.6.9-.8l33.4-33.4c.2-.2.4-.4.7-.6 1.2-1 3-.9 4.1.2 1.1 1.1 1.1 2.9.1 4.1-.2.2-.4.4-.6.7l-33.3 33.3c-.2.2-.5.4-.9.7.3.3.5.6.8.8 11.1 11.1 22.2 22.2 33.4 33.3.2.2.4.4.6.7 1.1 1.2 1 3.1-.1 4.2s-2.9 1.1-4.1 0l-.6-.6c-11.1-11.1-22.2-22.2-33.4-33.3-.2-.2-.5-.5-.8-.7-.3.3-.5.5-.8.7-11.1 11.1-22.2 22.2-33.4 33.3-.2.2-.4.4-.7.6-1.2 1-2.9 1-4.1-.1-1.1-1.1-1.2-2.8-.2-4.1.2-.3.5-.5.7-.7l33.3-33.3.9-.9z"/></svg>