<svg xmlns="http://www.w3.org/2000/svg" viewBox="0 0 100.353 100.352" style="enable-background:new 0 0 100.353 100.352" xml:space="preserve"><path d="M70.357 27.908a1.502 1.502 0 0 0-2.791.472c-.618 3.587-2.555 12.405-5.176 17.72a179.883 179.883 0 0 1-.627-4.911c-.285-2.417-.555-4.701-.922-6.62C57.83 17.585 50.667 5.321 50.364 4.807a1.5 1.5 0 0 0-2.782.599c-2.03 18.535-7.53 36.37-10.801 43.716-1.849-13.25 2.864-30.018 2.917-30.202a1.5 1.5 0 0 0-2.597-1.37c-.186.225-4.608 5.583-9.092 13.557-6.059 10.774-9.131 20.676-9.131 29.431 0 8.046 1.75 15.533 4.685 20.051C28.61 90.16 38.44 96.104 49.234 96.104c11.042 0 21.275-6.434 26.1-16.399 2.467-3.672 3.938-9.802 3.938-16.436-.001-19.043-8.551-34.703-8.915-35.361zm2.436 50.198c-.044.063-.082.13-.115.199-4.309 8.99-13.511 14.799-23.444 14.799-9.699 0-18.53-5.354-23.048-13.972a1.433 1.433 0 0 0-.074-.126c-2.651-4.043-4.234-10.946-4.234-18.468 0-13.427 8.07-27.541 13.26-35.229-1.448 7.433-2.95 19.189-.489 28.448a1.5 1.5 0 0 0 2.557.625c2.978-3.263 9.805-22.85 12.754-43.826 2.358 4.953 6.036 13.86 7.933 24.556.351 1.834.614 4.066.894 6.429.364 3.084.741 6.273 1.354 8.904a1.498 1.498 0 0 0 2.579.659c3.331-3.723 5.703-12.435 6.906-17.782 2.516 5.762 6.646 17.17 6.646 29.946-.001 6.02-1.334 11.706-3.479 14.838z"/></svg>