<svg xmlns="http://www.w3.org/2000/svg" viewBox="0 0 100.353 100.353" style="enable-background:new 0 0 100.353 100.353" xml:space="preserve"><path style="fill:#231f20" d="M21.235 71.238c-.386 0-.757-.154-1.03-.427L.427 51.029a1.455 1.455 0 0 1 0-2.059l19.774-19.774a1.455 1.455 0 0 1 2.059 0L42.042 48.97a1.458 1.458 0 0 1 0 2.06L22.263 70.812a1.453 1.453 0 0 1-1.028.426zM3.517 50l17.718 17.722L38.954 50 21.231 32.285 3.517 50zm46.482-7.526c-.373 0-.745-.142-1.03-.426L29.187 22.266a1.458 1.458 0 0 1 0-2.06L48.969.428a1.457 1.457 0 0 1 2.059 0L70.81 20.21a1.458 1.458 0 0 1 0 2.06L51.028 42.048a1.448 1.448 0 0 1-1.029.426zM32.276 21.237l17.723 17.722L67.721 21.24 49.999 3.518 32.276 21.237zm17.723 78.761c-.373 0-.745-.143-1.03-.427L29.187 79.789a1.458 1.458 0 0 1 0-2.06l19.779-19.778a1.455 1.455 0 0 1 2.059 0l19.782 19.782a1.456 1.456 0 0 1 0 2.06L51.029 99.571a1.453 1.453 0 0 1-1.03.427zM32.276 78.759l17.723 17.722 17.718-17.719L49.995 61.04 32.276 78.759zm46.487-7.521c-.386 0-.757-.154-1.03-.427L57.951 51.025a1.458 1.458 0 0 1 0-2.06l19.782-19.774a1.457 1.457 0 0 1 2.059 0l19.783 19.778a1.456 1.456 0 0 1 0 2.06L79.792 70.811a1.457 1.457 0 0 1-1.029.427zM61.04 49.996l17.722 17.726L96.485 50 78.762 32.28 61.04 49.996z"/></svg>