<svg xmlns="http://www.w3.org/2000/svg" viewBox="0 0 100.353 100.353" style="enable-background:new 0 0 100.353 100.353" xml:space="preserve"><path style="fill:#231f20" d="M90.191 19.754H22.259a1.5 1.5 0 0 0-1.5 1.5v8.233a1.5 1.5 0 1 0 3 0v-6.733h64.933v37.781h-6.196a1.5 1.5 0 0 0 0 3h7.696a1.5 1.5 0 0 0 1.5-1.5V21.254a1.5 1.5 0 0 0-1.501-1.5z"/><path style="fill:#231f20" d="M78.653 32.328H9.81a1.5 1.5 0 0 0-1.5 1.5v44.918a1.5 1.5 0 0 0 1.5 1.5h68.843a1.5 1.5 0 0 0 1.5-1.5V33.828a1.5 1.5 0 0 0-1.5-1.5zm-1.5 3v31.474L65.96 66.8l-9.969-8.273a1.505 1.505 0 0 0-1.894-.019l-9.702 7.741-14.7-16.192a1.5 1.5 0 0 0-1.108-.492h-.003a1.5 1.5 0 0 0-1.106.487L11.31 67.717V35.328h65.843zM11.31 77.246V72.16l17.27-18.869 14.54 16.017a1.5 1.5 0 0 0 2.046.165l9.848-7.858 9.446 7.84c.27.224.608.346.958.346l11.734.003v7.444H11.31z"/><path style="fill:#231f20" d="M64.666 51.264a5.953 5.953 0 0 0 5.946-5.946c0-3.278-2.668-5.946-5.946-5.946s-5.946 2.667-5.946 5.946a5.953 5.953 0 0 0 5.946 5.946zm0-8.892c1.625 0 2.946 1.321 2.946 2.946s-1.321 2.946-2.946 2.946-2.946-1.322-2.946-2.946 1.321-2.946 2.946-2.946z"/></svg>