<svg class="t-sociallinks__svg" xmlns="http://www.w3.org/2000/svg" width="25" height="25" xml:space="preserve"><path d="M16.396 3.312H8.604c-2.921 0-5.292 2.371-5.292 5.273v7.846c0 2.886 2.371 5.256 5.292 5.256h7.791c2.922 0 5.292-2.37 5.292-5.274V8.586c.001-2.903-2.37-5.274-5.291-5.274zM7.722 12.5a4.778 4.778 0 1 1 9.554 0 4.778 4.778 0 0 1-9.554 0zm10.034-4.318c-.615 0-1.104-.487-1.104-1.102s.488-1.103 1.104-1.103c.614 0 1.102.488 1.102 1.103s-.488 1.102-1.102 1.102z"/><path d="M12.5 9.376A3.12 3.12 0 0 0 9.376 12.5a3.12 3.12 0 0 0 3.124 3.124 3.12 3.12 0 0 0 3.124-3.124A3.133 3.133 0 0 0 12.5 9.376z"/></svg>