<svg xmlns="http://www.w3.org/2000/svg" viewBox="0 0 20.37 26.67"><path d="M2.77 10.77V6.85a7.18 7.18 0 0 1 14.35.13v3.76c.1.06.14.1.18.1 2.3.14 3.05.92 3.05 3.21v9.74c0 1.93-1 2.87-2.92 2.88H2.88a2.53 2.53 0 0 1-2.86-2.83v-9.67c0-2.27.47-2.87 2.75-3.4Zm11.66.06a37.74 37.74 0 0 0 0-4.26 4.27 4.27 0 0 0-2.31-3.39 4.47 4.47 0 0 0-6.1 1.77c-1 1.89-.45 3.89-.65 5.88Zm-3.65 11.44a1 1 0 0 0 .07-.2v-2.05a1.36 1.36 0 0 1 .44-1.06 2.37 2.37 0 0 0 .56-1.46 1.4 1.4 0 0 0-1-1.37 1.64 1.64 0 0 0-1.83.6 1.66 1.66 0 0 0 .33 2.3.92.92 0 0 1 .43.9v2.36Z" fill="#fff"/></svg>