<svg xmlns="http://www.w3.org/2000/svg" viewBox="0 0 100.353 100.353" style="enable-background:new 0 0 100.353 100.353" xml:space="preserve"><path d="M88.8 32.914 80.494 7.996a1.5 1.5 0 0 0-1.423-1.026H20.93a1.5 1.5 0 0 0-1.423 1.026l-8.306 24.918a1.499 1.499 0 0 0-.077.474v58.141a1.5 1.5 0 0 0 1.5 1.5h74.753a1.5 1.5 0 0 0 1.5-1.5V33.388c0-.161-.026-.321-.077-.474zm-3.302-.421c-3.075 2.249-6.513 3.316-10.757 3.316-3.841 0-7.548-1.195-10.781-3.439V9.97h14.03l7.508 22.523zM39.042 9.97h21.917v22.403c-3.23 2.242-6.937 3.437-10.779 3.437-3.99 0-7.822-1.291-11.138-3.712V9.97zm-17.031 0h14.031v22.128c-3.316 2.421-7.147 3.712-11.138 3.712a18.91 18.91 0 0 1-10.461-3.135L22.011 9.97zm-7.887 80.059V35.987a21.9 21.9 0 0 0 10.78 2.823c4.523 0 8.869-1.405 12.638-4.076 3.769 2.671 8.115 4.076 12.638 4.076 4.373 0 8.596-1.314 12.28-3.811 3.687 2.497 7.909 3.811 12.28 3.811 4.232 0 7.894-.986 11.137-2.967v54.186H14.124z"/><path d="M64.807 45.888H35.194a1.5 1.5 0 0 0-1.5 1.5v27.529a1.5 1.5 0 0 0 1.5 1.5h29.613a1.5 1.5 0 0 0 1.5-1.5V47.388a1.5 1.5 0 0 0-1.5-1.5zm-28.113 3h11.959v24.529H36.694V48.888zm26.613 24.529H51.652V48.888h11.654v24.529z"/></svg>