<svg class="t-sociallinks__svg" xmlns="http://www.w3.org/2000/svg" width="25" height="25" xml:space="preserve"><path d="M12.498 6.2a1.932 1.932 0 0 0-1.929 1.93 1.932 1.932 0 0 0 3.861 0 1.932 1.932 0 0 0-1.932-1.93zm0 6.592a4.668 4.668 0 0 1-4.66-4.662 4.665 4.665 0 0 1 4.66-4.663 4.666 4.666 0 0 1 4.664 4.663 4.669 4.669 0 0 1-4.664 4.662zm-1.884 3.801a8.75 8.75 0 0 1-2.708-1.12 1.367 1.367 0 1 1 1.455-2.312 5.925 5.925 0 0 0 6.276 0 1.367 1.367 0 1 1 1.456 2.311c-.832.522-1.749.9-2.707 1.12l2.606 2.608a1.367 1.367 0 1 1-1.933 1.931L12.5 18.569l-2.561 2.562a1.368 1.368 0 0 1-1.934-1.934l2.609-2.604z"/></svg>