<svg class="t821__phone-icon" width="45" height="45" xmlns="http://www.w3.org/2000/svg" viewBox="0 0 100.353 100.352"><path d="M39.514 85.637c3.975 2.226 7.89 3.344 11.537 3.344 3.053-.001 5.918-.785 8.468-2.359l9.399-5.798a1.5 1.5 0 0 0 .489-2.065L61.26 65.555a1.502 1.502 0 0 0-2.065-.488l-9.47 5.845c-1.456.898-3.324 1.185-5.121.79-1.797-.396-3.331-1.438-4.209-2.862L27.524 47.981c-1.861-3.016-.923-6.984 2.091-8.845l.001-.001 9.829-6.068a1.5 1.5 0 0 0 .488-2.064l-8.148-13.201a1.498 1.498 0 0 0-2.064-.489L19.9 23.375c-10.946 6.756-10.562 24.491.936 43.129 5.271 8.546 11.905 15.341 18.678 19.133zm-18.037-59.71 8.544-5.273 6.573 10.648-8.553 5.28-.004.003c-4.418 2.731-5.794 8.548-3.065 12.97l12.871 20.858c1.301 2.111 3.531 3.648 6.117 4.218 2.551.559 5.228.136 7.341-1.168l8.193-5.057 6.572 10.65-8.123 5.011c-5.932 3.66-12.499 1.45-16.963-1.049-6.335-3.548-12.583-9.972-17.591-18.09-10.57-17.134-11.356-33.172-1.912-39.001zm28.103 7.625c4.854.287 9.15 2.781 11.788 6.844 2.522 3.872 3.129 8.617 1.664 13.019a1.498 1.498 0 0 0 1.423 1.973c.629 0 1.214-.397 1.423-1.026 1.756-5.274 1.028-10.962-1.995-15.602-3.114-4.798-8.396-7.865-14.126-8.204-.835-.035-1.537.582-1.586 1.409a1.5 1.5 0 0 0 1.409 1.587z"/><path d="M51.68 22.418c7.86.903 14.837 5.216 19.142 11.831a26.37 26.37 0 0 1 3.242 21.664 1.498 1.498 0 0 0 1.442 1.914 1.5 1.5 0 0 0 1.44-1.086 29.372 29.372 0 0 0-3.61-24.128c-4.794-7.367-12.562-12.169-21.314-13.175-.807-.095-1.566.496-1.661 1.319s.495 1.566 1.319 1.661z"/><path d="M53.731 12.612A36.328 36.328 0 0 1 79.198 28.8a36.424 36.424 0 0 1 4.633 29.301 1.5 1.5 0 0 0 1.45 1.89c.661 0 1.268-.44 1.447-1.11a39.425 39.425 0 0 0-5.015-31.717A39.329 39.329 0 0 0 54.146 9.641a1.504 1.504 0 0 0-1.692 1.279 1.498 1.498 0 0 0 1.277 1.692z"/></svg>