<svg xmlns="http://www.w3.org/2000/svg" viewBox="0 0 100.353 100.353" style="enable-background:new 0 0 100.353 100.353" xml:space="preserve"><path style="fill:#231f20" d="M88.293 10.207H11.708a1.5 1.5 0 0 0-1.5 1.5v76.585a1.5 1.5 0 0 0 1.5 1.5h76.585a1.5 1.5 0 0 0 1.5-1.5V11.707a1.5 1.5 0 0 0-1.5-1.5zm-1.5 76.585H13.208V13.207h73.585v73.585z"/><path style="fill:#231f20" d="M31.93 44.333c7.767 0 14.085-6.319 14.085-14.087 0-7.767-6.319-14.086-14.085-14.086-7.769 0-14.088 6.319-14.088 14.086 0 7.768 6.32 14.087 14.088 14.087zm0-25.173c6.112 0 11.085 4.973 11.085 11.086S38.042 41.333 31.93 41.333c-6.114 0-11.088-4.974-11.088-11.087S25.816 19.16 31.93 19.16zm36.813 25.173c7.767 0 14.085-6.319 14.085-14.087 0-7.767-6.318-14.086-14.085-14.086-7.769 0-14.089 6.319-14.089 14.086 0 7.768 6.32 14.087 14.089 14.087zm0-25.173c6.112 0 11.085 4.973 11.085 11.086s-4.973 11.087-11.085 11.087c-6.114 0-11.089-4.974-11.089-11.087S62.629 19.16 68.743 19.16zM31.93 76.472c7.767 0 14.085-6.319 14.085-14.087 0-7.767-6.319-14.086-14.085-14.086-7.769 0-14.088 6.319-14.088 14.086 0 7.768 6.32 14.087 14.088 14.087zm0-25.173c6.112 0 11.085 4.973 11.085 11.086S38.042 73.472 31.93 73.472c-6.114 0-11.088-4.974-11.088-11.087s4.974-11.086 11.088-11.086zm36.813 25.173c7.767 0 14.085-6.319 14.085-14.087 0-7.767-6.318-14.086-14.085-14.086-7.769 0-14.089 6.319-14.089 14.086 0 7.768 6.32 14.087 14.089 14.087zm0-25.173c6.112 0 11.085 4.973 11.085 11.086s-4.973 11.087-11.085 11.087c-6.114 0-11.089-4.974-11.089-11.087s4.975-11.086 11.089-11.086zM43.382 78.43a1.5 1.5 0 0 0-1.5 1.5v4.315a1.5 1.5 0 1 0 3 0V79.93a1.5 1.5 0 0 0-1.5-1.5zm6.915 7.315a1.5 1.5 0 0 0 1.5-1.5V79.93a1.5 1.5 0 1 0-3 0v4.315a1.5 1.5 0 0 0 1.5 1.5zm6.919-7.315a1.5 1.5 0 0 0-1.5 1.5v4.315a1.5 1.5 0 1 0 3 0V79.93a1.5 1.5 0 0 0-1.5-1.5z"/></svg>