<svg version="1.0" id="success" xmlns="http://www.w3.org/2000/svg" x="0" y="0" viewBox="0 0 210 210" style="enable-background:new 0 0 210 210" xml:space="preserve"><style>.st0{fill:#009245}</style><path class="st0" d="M207.6 101.4v7.2c0 .2-.1.5-.1.7-.3 7.6-1.4 15.1-3.5 22.5-7.8 27.5-24 48.4-48.8 62.6-13.5 7.8-28.2 12-43.7 13-1 .1-1.9.1-2.9.2h-7.2c-.2 0-.4-.1-.6-.1-6.3-.2-12.6-1.1-18.7-2.5-20.6-4.8-38.1-14.9-52.4-30.5C13.9 157.4 5.1 137.2 2.9 114c-.7-6.9-.5-13.9.3-20.8.9-7.5 2.5-14.7 5-21.8C22 31.9 57.7 5 99.4 2.6c11-.6 21.8.4 32.4 3.4 27.5 7.7 48.4 23.9 62.6 48.7 7.8 13.6 12 28.2 13 43.9.1.9.2 1.9.2 2.8zM105 193c48.5.1 88-39.4 88-87.9 0-48.5-39.3-87.9-87.9-87.9-48.7 0-87.9 39.2-87.9 87.9-.1 48.5 39.3 87.8 87.8 87.9z"/><path class="st0" d="M87.4 127.1c.2-.3.4-.5.6-.6l59.2-59.2c1.6-1.6 3.4-2.6 5.7-2.5 3 .1 5.3 1.6 6.5 4.3 1.3 2.7.9 5.4-1 7.7-.2.3-.5.6-.8.8-21.8 21.8-43.6 43.6-65.3 65.4-2.8 2.8-6.8 3.3-9.8 1-.5-.4-1-.9-1.4-1.4L52 106.3c-.9-1.2-1.8-2.4-2.1-3.9-.6-3.4 1-6.7 4.1-8.1 3.1-1.4 6.7-.5 8.8 2.1L76 112.9c3.7 4.6 7.3 9.1 11 13.7.1.1.2.2.4.5z"/></svg>