<svg class="t-sociallinks__svg" xmlns="http://www.w3.org/2000/svg" width="25" height="25" viewBox="0 0 109 109" xml:space="preserve"><path fill-rule="evenodd" clip-rule="evenodd" d="M55.67 13.067c10.79.004 20.916 4.204 28.53 11.828C91.816 32.52 96.007 42.651 96 53.43c-.01 22.236-18.103 40.33-40.331 40.33h-.016a40.294 40.294 0 0 1-19.273-4.91L15 94.459l5.722-20.9a40.264 40.264 0 0 1-5.383-20.162c.008-22.238 18.102-40.329 40.331-40.329ZM67.182 58.39c.924.337 5.878 2.774 6.886 3.278.195.098.377.186.546.268.706.341 1.182.571 1.385.911.252.42.252 2.439-.588 4.792-.84 2.354-4.865 4.502-6.801 4.791-1.738.26-3.934.368-6.348-.4a57.716 57.716 0 0 1-5.745-2.122c-9.451-4.081-15.837-13.242-17.04-14.968-.084-.12-.142-.204-.175-.248l-.004-.005c-.519-.69-4.112-5.471-4.112-10.42 0-4.64 2.279-7.071 3.329-8.192l.199-.214c.924-1.01 2.016-1.261 2.687-1.261.672 0 1.344.005 1.931.035.073.003.148.003.226.002.588-.003 1.32-.008 2.042 1.727.279.67.687 1.665 1.118 2.713.866 2.108 1.821 4.432 1.99 4.77.25.504.42 1.092.083 1.765l-.144.29c-.252.514-.438.892-.864 1.39a42.33 42.33 0 0 0-.514.619c-.348.423-.695.846-.998 1.148-.504.502-1.03 1.047-.441 2.056.588 1.008 2.61 4.308 5.607 6.98 3.219 2.873 6.017 4.087 7.436 4.702.278.12.503.218.668.3 1.006.505 1.594.422 2.182-.251.589-.673 2.52-2.942 3.191-3.951.672-1.01 1.345-.841 2.268-.505Z"/></svg>