<svg xmlns="http://www.w3.org/2000/svg" viewBox="0 0 100.176 100.178" style="enable-background:new 0 0 100.176 100.178" xml:space="preserve"><path d="M86.892 21.638H70.136l-1.567-5.716a1.499 1.499 0 0 0-1.984-1.004L48.733 21.77a1.486 1.486 0 0 0-.611-.132H26.666c-.407 0-.797.166-1.08.459L12.364 35.809a1.49 1.49 0 0 0-.546.892c-.008.036-.01.074-.015.111-.005.048-.013.094-.014.143-.001.019-.006.038-.006.057V83.86a1.5 1.5 0 0 0 1.5 1.5H80.2a1.5 1.5 0 0 0 1.5-1.5v-5.188h5.191a1.5 1.5 0 0 0 1.5-1.5V23.138a1.498 1.498 0 0 0-1.499-1.5zm-16.06 13.879h-49.54l44.822-17.206 4.718 17.206zM27.303 24.638h13.959l-22.161 8.507 8.202-8.507zM78.7 82.36H14.783V38.517H78.7V82.36zm6.692-6.688H81.7V37.017a1.5 1.5 0 0 0-1.5-1.5h-6.259l-2.983-10.879h14.433v51.034z"/></svg>