<svg xmlns="http://www.w3.org/2000/svg" viewBox="0 0 100.354 100.352" style="enable-background:new 0 0 100.354 100.352" xml:space="preserve"><path d="M81.031 19.808C72.849 11.69 62.009 7.225 50.489 7.225h-.174C26.4 7.319 7.021 26.85 7.113 50.765c.045 11.585 4.599 22.458 12.822 30.617 8.183 8.119 19.022 12.584 30.542 12.583h.175c23.914-.093 43.294-19.624 43.201-43.539-.044-11.584-4.598-22.458-12.822-30.618zm-30.39 71.157c-10.756.04-20.937-4.116-28.592-11.712s-11.894-17.717-11.936-28.5c-.086-22.26 17.953-40.441 40.213-40.528h.162c10.723 0 20.814 4.156 28.43 11.713 7.655 7.595 11.894 17.716 11.936 28.5.086 22.26-17.954 40.44-40.213 40.527z"/><path d="M66.319 39.333a1.501 1.501 0 0 0-2.348-1.821L51.283 49.801c-.225-.02-.464-.02-.672-.03-3.988.016-7.22 3.273-7.206 7.261a7.182 7.182 0 0 0 2.139 5.106 7.179 7.179 0 0 0 5.09 2.098h.032a7.187 7.187 0 0 0 5.107-2.138 7.192 7.192 0 0 0 1.743-7.315l8.803-15.45zM54.492 55.272a4.204 4.204 0 0 1-.849 4.713 4.202 4.202 0 0 1-2.989 1.251c-1.131-.022-2.195-.431-2.998-1.228a4.2 4.2 0 0 1-1.251-2.988 4.239 4.239 0 0 1 4.215-4.249h.01c.285 0 .576.03.865.09.484.098.988-.047 1.346-.393l5.667-5.488-3.952 6.936c-.236.415-.26.919-.064 1.356zm-3.741 19.33h-.019a4.727 4.727 0 0 0-4.703 4.739 4.687 4.687 0 0 0 1.396 3.333 4.69 4.69 0 0 0 3.325 1.369h.019a4.727 4.727 0 0 0 4.703-4.739 4.724 4.724 0 0 0-4.721-4.702zm.007 6.441h-.007c-.458 0-.888-.177-1.212-.499a1.724 1.724 0 0 1 1.205-2.943h.007a1.722 1.722 0 0 1 .007 3.442z"/><path d="M50.5 17.95h-.127c-8.67.033-16.808 3.441-22.915 9.595-6.106 6.154-9.451 14.318-9.418 22.988.035 8.677 3.447 16.819 9.609 22.928.282.278.661.435 1.056.435l.05-.001a1.5 1.5 0 0 0 1.075-.507l6.796-7.701a1.5 1.5 0 1 0-2.249-1.984l-5.716 6.478c-4.896-5.396-7.591-12.316-7.62-19.658-.03-7.869 3.005-15.278 8.548-20.863s12.928-8.678 20.797-8.708h.115c16.19 0 29.395 13.14 29.457 29.345.028 7.367-2.63 14.331-7.518 19.773l-5.773-5.729a1.5 1.5 0 1 0-2.113 2.129l6.864 6.812a1.5 1.5 0 0 0 1.057.436h.006a1.506 1.506 0 0 0 1.059-.443c6.107-6.154 9.452-14.318 9.419-22.989C82.887 32.427 68.34 17.95 50.5 17.95z"/></svg>