<?xml version="1.0" encoding="utf-8"?>
<!-- Generator: Adobe Illustrator 22.0.0, SVG Export Plug-In . SVG Version: 6.00 Build 0)  -->
<svg version="1.1" id="logo" xmlns="http://www.w3.org/2000/svg" xmlns:xlink="http://www.w3.org/1999/xlink" x="0px" y="0px"
	 viewBox="0 0 99.2 99.2" style="enable-background:new 0 0 99.2 99.2;" xml:space="preserve">
<style type="text/css">
	.st0{fill:#4F5A6C;}
	.st1{fill:#FF0000;}
	.st2{fill:#F7C735;}
	.st3{fill:#FF9C00;}
</style>
<g>
	<path id="path4770" class="st0" d="M98.3,49.6c0,26.9-21.8,48.7-48.7,48.7S0.9,76.5,0.9,49.6S22.7,0.9,49.6,0.9
		S98.3,22.7,98.3,49.6z"/>
	<g id="g4772" transform="matrix(0.33941339,0,0,0.33941339,1007.0117,-670.65219)">
		<g id="g4774">
			<path id="path4776" class="st1" d="M-2854.6,2088.7c-20.2,43.3,62.5,71.6,72.3,13.7c2.7-16.2-13.7-30.8-28.7-36.1
				c0.6,7.8,1.8,15.4,8.5,21.2c-16.6,2.5-17.9-9.1-13.9-26.8c-21.3,2-31.8,10.5-29.1,34.7L-2854.6,2088.7z"/>
			<path id="path4778" class="st2" d="M-2818.9,2063.7c-23.3,29.5-5.9,69.5,32.6,43.3c-4,23.5-68.4,38.8-66.1-11.8
				c5.1,4.9,7.5,6.7,11.6,4.3C-2845.2,2079.5-2833,2063.5-2818.9,2063.7L-2818.9,2063.7z"/>
			<path id="path4780" class="st3" d="M-2819.5,2064.1c-20.4,25.8-2.7,66,33,42.6c-4.8,18.4-38.6,25.4-58.1,4.1
				c6.1,0,11.8-0.3,14.5-2.3C-2841.3,2096.1-2839.2,2075.7-2819.5,2064.1L-2819.5,2064.1z"/>
		</g>
		<path id="y_logo" class="st2" d="M-2776.8,2138h-47.3c-14.9,0-23.9-4.9-30.3-12.1c-6.4-7.2-10-17.4-10-27.9c0-10.5,3.6-20.8,10-28
			c6.4-7.2,15.5-12.2,30.3-12.2h47.3c8.8,0.1,16.8-7.8,16.8-16.6c0-8.8-8.1-16.7-16.8-16.6l-47.3,0c-23.1,0-42.5,9.2-55,23.3
			c-12.5,14-18.5,32.1-18.5,50c0,17.9,5.9,36,18.4,50.1c4.5,5.1,10,9.5,16.2,13.1l-21.6,26.7c-5.8,7.1-4.7,17.6,2.5,23.4
			c7.1,5.8,17.6,4.7,23.4-2.5c0,0,0,0,0,0l30.3-37.7c1.4,0.1,2.8,0.2,4.2,0.2h30.7l0.2,26.7c-0.1,8.8,7.8,16.8,16.6,16.8
			c8.8,0,16.7-8.1,16.6-16.8l-0.2-43.3C-2760.2,2145.9-2768.2,2138-2776.8,2138z"/>
	</g>
</g>
</svg>
