<?xml version="1.0" encoding="utf-8"?>
<!-- Generator: Adobe Illustrator 25.2.0, SVG Export Plug-In . SVG Version: 6.00 Build 0)  -->
<svg version="1.0" id="Слой_1" xmlns="http://www.w3.org/2000/svg" xmlns:xlink="http://www.w3.org/1999/xlink" x="0px" y="0px"
	 viewBox="0 0 210 210" style="enable-background:new 0 0 210 210;" xml:space="preserve">
<style type="text/css">
	.st0{fill:#FF0000;}
</style>
<path class="st0" d="M2.3,103.5c0.1-1.1,0.2-2.2,0.3-3.3C3,90.7,4.7,81.3,7.8,72.3c4.9-14.4,12.6-27.1,23.1-38.1
	c14-14.5,30.7-24.3,50.4-29c7.6-1.8,15.3-2.7,23.1-2.8c14.6-0.1,28.6,2.7,42,8.6c13.2,5.8,24.6,14,34.4,24.6
	c11,12,18.8,25.9,23.2,41.6c1.5,5.3,2.5,10.7,3.1,16.2c0.3,2.7,0.5,5.4,0.5,8.1c0,0.4,0.1,0.8,0.1,1.2c0,1.6,0,3.3,0,4.9
	c0,0.3-0.1,0.7-0.1,1c-0.7,22.9-8.4,43.2-22.7,61c-11.3,14-25.3,24.3-42,30.9c-7.6,3-15.5,5.1-23.6,6.2c-6.4,0.9-12.9,1.2-19.4,0.8
	C75,206,53.3,196.9,35,179.9c-14.3-13.3-24-29.5-29.1-48.4c-1.3-4.9-2.3-9.9-2.8-15c-0.3-3-0.5-6-0.7-9.1c0-0.3-0.1-0.6-0.1-0.9
	C2.3,105.5,2.3,104.5,2.3,103.5z M105.1,8.4c-53.2,0-96.5,43.2-96.6,96.3C8.3,158,51.8,201.5,105,201.6c53.2,0,96.7-43.3,96.7-96.6
	C201.7,51.9,158.4,8.4,105.1,8.4z"/>
<path class="st0" d="M100.9,104.9c-0.4-0.3-0.6-0.5-0.9-0.7C88.9,93.1,77.8,82,66.7,70.9c-0.2-0.2-0.5-0.5-0.7-0.7
	c-1-1.2-0.9-2.9,0.1-4c1-1.1,2.7-1.2,3.9-0.4c0.3,0.2,0.5,0.4,0.7,0.7C82,77.7,93.2,88.8,104.4,100c0.2,0.2,0.4,0.5,0.6,0.8
	c0.4-0.4,0.6-0.6,0.9-0.8c11.1-11.1,22.3-22.3,33.4-33.4c0.2-0.2,0.4-0.4,0.7-0.6c1.2-1,3-0.9,4.1,0.2c1.1,1.1,1.1,2.9,0.1,4.1
	c-0.2,0.2-0.4,0.4-0.6,0.7c-11.1,11.1-22.2,22.2-33.3,33.3c-0.2,0.2-0.5,0.4-0.9,0.7c0.3,0.3,0.5,0.6,0.8,0.8
	c11.1,11.1,22.2,22.2,33.4,33.3c0.2,0.2,0.4,0.4,0.6,0.7c1.1,1.2,1,3.1-0.1,4.2c-1.1,1.1-2.9,1.1-4.1,0c-0.2-0.2-0.4-0.4-0.6-0.6
	c-11.1-11.1-22.2-22.2-33.4-33.3c-0.2-0.2-0.5-0.5-0.8-0.7c-0.3,0.3-0.5,0.5-0.8,0.7c-11.1,11.1-22.2,22.2-33.4,33.3
	c-0.2,0.2-0.4,0.4-0.7,0.6c-1.2,1-2.9,1-4.1-0.1c-1.1-1.1-1.2-2.8-0.2-4.1c0.2-0.3,0.5-0.5,0.7-0.7c11.1-11.1,22.2-22.2,33.3-33.3
	C100.3,105.5,100.5,105.3,100.9,104.9z"/>
</svg>
