<svg id="Lock" xmlns="http://www.w3.org/2000/svg" viewBox="0 0 20.37 26.67">
  <path d="M10.75,15.27c0-1.29,0-2.61,0-3.92a7.18,7.18,0,0,1,14.35.13c0,1.27,0,2.53,0,3.76.1.06.14.1.18.1,2.3.14,3.05.92,3.05,3.21v9.74c0,1.93-1,2.87-2.92,2.88H10.86A2.53,2.53,0,0,1,8,28.34V18.67C8,16.4,8.47,15.8,10.75,15.27Zm11.66.06a37.74,37.74,0,0,0,0-4.26A4.27,4.27,0,0,0,20.1,7.68,4.47,4.47,0,0,0,14,9.45c-1,1.89-.45,3.89-.65,5.88ZM18.76,26.77a1,1,0,0,0,.07-.2c0-.69,0-1.37,0-2.05a1.36,1.36,0,0,1,.44-1.06A2.37,2.37,0,0,0,19.83,22a1.4,1.4,0,0,0-1-1.37,1.64,1.64,0,0,0-1.83.6,1.66,1.66,0,0,0,.33,2.3.92.92,0,0,1,.43.9c0,.78,0,1.55,0,2.36Z" transform="translate(-7.98 -4.5)" fill="#fff"/>
</svg>
