<svg class="t-sociallinks__svg" version="1.1" id="Layer_1" xmlns="http://www.w3.org/2000/svg" xmlns:xlink="http://www.w3.org/1999/xlink" x="0px" y="0px" width="25px" height="25px" viewBox="0 0 25 25" enable-background="new 0 0 25 25" xml:space="preserve"><desc>Odnoklassniki</desc><path d="M12.498,6.2c-1.064,0.001-1.927,0.864-1.929,1.93c0,1.064,0.865,1.93,1.929,1.93c1.067-0.002,1.931-0.865,1.932-1.93C14.43,7.064,13.565,6.201,12.498,6.2L12.498,6.2z M12.498,12.792c-2.571-0.004-4.657-2.089-4.66-4.662c0.002-2.575,2.086-4.66,4.66-4.663c2.575,0.002,4.663,2.088,4.664,4.663C17.16,10.703,15.073,12.788,12.498,12.792L12.498,12.792z M10.614,16.593c-0.959-0.218-1.876-0.598-2.708-1.12c-0.639-0.401-0.831-1.246-0.43-1.884c0.402-0.639,1.247-0.831,1.885-0.428c1.919,1.199,4.357,1.199,6.276,0c0.414-0.261,0.936-0.281,1.367-0.053c0.432,0.227,0.709,0.669,0.727,1.157c0.018,0.487-0.224,0.947-0.638,1.207c-0.832,0.522-1.749,0.9-2.707,1.12l2.606,2.608c0.533,0.534,0.532,1.398-0.002,1.934c-0.535,0.531-1.397,0.531-1.931-0.003L12.5,18.569l-2.561,2.562c-0.534,0.534-1.399,0.534-1.934,0c-0.531-0.534-0.531-1.399,0-1.934L10.614,16.593L10.614,16.593z"></path></svg>