<?xml version="1.0" encoding="UTF-8"?> <!-- Generator: Adobe Illustrator 21.0.0, SVG Export Plug-In . SVG Version: 6.00 Build 0) --> <svg xmlns="http://www.w3.org/2000/svg" xmlns:xlink="http://www.w3.org/1999/xlink" id="Layer_1" x="0px" y="0px" viewBox="0 0 100.353 100.353" style="enable-background:new 0 0 100.353 100.353;" xml:space="preserve"> <g> <path style="fill:#231F20;" d="M88.293,10.207H11.708c-0.829,0-1.5,0.671-1.5,1.5v76.585c0,0.829,0.671,1.5,1.5,1.5h76.585 c0.828,0,1.5-0.671,1.5-1.5V11.707C89.793,10.879,89.121,10.207,88.293,10.207z M86.793,86.792H13.208V13.207h73.585V86.792z"></path> <path style="fill:#231F20;" d="M31.93,44.333c7.767,0,14.085-6.319,14.085-14.087c0-7.767-6.319-14.086-14.085-14.086 c-7.769,0-14.088,6.319-14.088,14.086C17.842,38.014,24.162,44.333,31.93,44.333z M31.93,19.16c6.112,0,11.085,4.973,11.085,11.086 S38.042,41.333,31.93,41.333c-6.114,0-11.088-4.974-11.088-11.087S25.816,19.16,31.93,19.16z"></path> <path style="fill:#231F20;" d="M68.743,44.333c7.767,0,14.085-6.319,14.085-14.087c0-7.767-6.318-14.086-14.085-14.086 c-7.769,0-14.089,6.319-14.089,14.086C54.654,38.014,60.974,44.333,68.743,44.333z M68.743,19.16 c6.112,0,11.085,4.973,11.085,11.086s-4.973,11.087-11.085,11.087c-6.114,0-11.089-4.974-11.089-11.087S62.629,19.16,68.743,19.16z "></path> <path style="fill:#231F20;" d="M31.93,76.472c7.767,0,14.085-6.319,14.085-14.087c0-7.767-6.319-14.086-14.085-14.086 c-7.769,0-14.088,6.319-14.088,14.086C17.842,70.153,24.162,76.472,31.93,76.472z M31.93,51.299 c6.112,0,11.085,4.973,11.085,11.086S38.042,73.472,31.93,73.472c-6.114,0-11.088-4.974-11.088-11.087S25.816,51.299,31.93,51.299z "></path> <path style="fill:#231F20;" d="M68.743,76.472c7.767,0,14.085-6.319,14.085-14.087c0-7.767-6.318-14.086-14.085-14.086 c-7.769,0-14.089,6.319-14.089,14.086C54.654,70.153,60.974,76.472,68.743,76.472z M68.743,51.299 c6.112,0,11.085,4.973,11.085,11.086s-4.973,11.087-11.085,11.087c-6.114,0-11.089-4.974-11.089-11.087 S62.629,51.299,68.743,51.299z"></path> <path style="fill:#231F20;" d="M43.382,78.43c-0.829,0-1.5,0.671-1.5,1.5v4.315c0,0.829,0.671,1.5,1.5,1.5s1.5-0.671,1.5-1.5V79.93 C44.882,79.101,44.211,78.43,43.382,78.43z"></path> <path style="fill:#231F20;" d="M50.297,85.745c0.829,0,1.5-0.671,1.5-1.5V79.93c0-0.829-0.671-1.5-1.5-1.5s-1.5,0.671-1.5,1.5 v4.315C48.797,85.074,49.468,85.745,50.297,85.745z"></path> <path style="fill:#231F20;" d="M57.216,78.43c-0.829,0-1.5,0.671-1.5,1.5v4.315c0,0.829,0.671,1.5,1.5,1.5s1.5-0.671,1.5-1.5V79.93 C58.716,79.101,58.044,78.43,57.216,78.43z"></path> </g> </svg> 