<?xml version="1.0" encoding="utf-8"?>
<!-- Generator: Adobe Illustrator 25.2.0, SVG Export Plug-In . SVG Version: 6.00 Build 0)  -->
<svg version="1.0" id="success" xmlns="http://www.w3.org/2000/svg" xmlns:xlink="http://www.w3.org/1999/xlink" x="0px" y="0px"
	 viewBox="0 0 210 210" style="enable-background:new 0 0 210 210;" xml:space="preserve">
<style type="text/css">
	.st0{fill:#009245;}
</style>
<path class="st0" d="M207.6,101.4c0,2.4,0,4.8,0,7.2c0,0.2-0.1,0.5-0.1,0.7c-0.3,7.6-1.4,15.1-3.5,22.5c-7.8,27.5-24,48.4-48.8,62.6
	c-13.5,7.8-28.2,12-43.7,13c-1,0.1-1.9,0.1-2.9,0.2c-2.4,0-4.8,0-7.2,0c-0.2,0-0.4-0.1-0.6-0.1c-6.3-0.2-12.6-1.1-18.7-2.5
	c-20.6-4.8-38.1-14.9-52.4-30.5C13.9,157.4,5.1,137.2,2.9,114c-0.7-6.9-0.5-13.9,0.3-20.8c0.9-7.5,2.5-14.7,5-21.8
	C22,31.9,57.7,5,99.4,2.6c11-0.6,21.8,0.4,32.4,3.4c27.5,7.7,48.4,23.9,62.6,48.7c7.8,13.6,12,28.2,13,43.9
	C207.5,99.5,207.6,100.5,207.6,101.4z M105,193c48.5,0.1,88-39.4,88-87.9c0-48.5-39.3-87.9-87.9-87.9c-48.7,0-87.9,39.2-87.9,87.9
	C17.1,153.6,56.5,192.9,105,193z"/>
<path class="st0" d="M87.4,127.1c0.2-0.3,0.4-0.5,0.6-0.6c19.7-19.7,39.5-39.5,59.2-59.2c1.6-1.6,3.4-2.6,5.7-2.5
	c3,0.1,5.3,1.6,6.5,4.3c1.3,2.7,0.9,5.4-1,7.7c-0.2,0.3-0.5,0.6-0.8,0.8c-21.8,21.8-43.6,43.6-65.3,65.4c-2.8,2.8-6.8,3.3-9.8,1
	c-0.5-0.4-1-0.9-1.4-1.4c-9.7-12.1-19.4-24.2-29.1-36.3c-0.9-1.2-1.8-2.4-2.1-3.9c-0.6-3.4,1-6.7,4.1-8.1c3.1-1.4,6.7-0.5,8.8,2.1
	c4.4,5.5,8.8,11,13.2,16.5c3.7,4.6,7.3,9.1,11,13.7C87.1,126.7,87.2,126.8,87.4,127.1z"/>
</svg>
