<svg id="person" xmlns="http://www.w3.org/2000/svg" viewBox="0 0 32.47 35.61">
  <path d="M35.16,32.45c0,.69,0,1.39-.06,2.09,0,.39,0,.78,0,1.19H2.78a.21.21,0,0,1,0-.07c0-2.27-.06-4.53-.06-6.79a5.6,5.6,0,0,1,.78-2.72,6.48,6.48,0,0,1,4.32-3.1q2.78-.75,5.54-1.53A12.24,12.24,0,0,0,14.48,21a19.65,19.65,0,0,0,4.43,11.47A19.57,19.57,0,0,0,23.33,21a26.26,26.26,0,0,0,4.89,1.56c.92.26,1.86.47,2.77.78a5.84,5.84,0,0,1,2.82,2,6.1,6.1,0,0,1,1.29,3.11,1.41,1.41,0,0,0,.06.22Z" transform="translate(-2.69 -0.13)" fill="#4d4d4d"/>
  <path d="M19,.13c.39.06.78.1,1.16.18A4,4,0,0,1,21.82,1a8.58,8.58,0,0,1,.7.66,1.9,1.9,0,0,1,1.71.21,4,4,0,0,1,1.9,2.85A14.42,14.42,0,0,1,26.21,9c0,.13,0,.27,0,.4.72.07,1,.41.8,1.11a4.11,4.11,0,0,1-1.78,2.68.56.56,0,0,0-.18.34,11.73,11.73,0,0,1-1.76,4.37A5.3,5.3,0,0,1,20,20.26a5.12,5.12,0,0,1-5.48-2.14,10.91,10.91,0,0,1-1.81-4.38,1,1,0,0,0-.38-.65,4.07,4.07,0,0,1-1.47-2.57.86.86,0,0,1,.51-1c.21-.09.23-.19.19-.4a9.4,9.4,0,0,1,0-4.38A5.7,5.7,0,0,1,16.26.31c.41-.09.83-.12,1.25-.18Z" transform="translate(-2.69 -0.13)" fill="#4d4d4d"/>
  <path d="M18.84,31.24c-.46-.76-.93-1.52-1.38-2.29a.45.45,0,0,1,0-.3c.16-1,.33-2,.5-2.94a.41.41,0,0,1,.46-.39h1.09a.37.37,0,0,1,.42.35c.17,1,.35,2,.52,3a.36.36,0,0,1,0,.23c-.46.78-.93,1.56-1.41,2.33Z" transform="translate(-2.69 -0.13)" fill="#666"/>
  <path d="M18.91,24.87c-.3,0-.68.11-.89,0s-.24-.53-.34-.81c-.26-.76-.51-1.53-.78-2.29-.08-.23,0-.32.22-.32,1.19,0,2.39,0,3.59,0,.23,0,.31.06.22.3-.34,1-.67,2-1,2.95a.29.29,0,0,1-.34.23c-.23,0-.46,0-.68,0Z" transform="translate(-2.69 -0.13)" fill="#666"/>
</svg>
