<svg class="t-sociallinks__svg" version="1.1" id="Layer_1" xmlns="http://www.w3.org/2000/svg" xmlns:xlink="http://www.w3.org/1999/xlink" x="0px" y="0px" width="25px" height="25px" viewBox="0 0 109 109" enable-background="new 0 0 109 109" xml:space="preserve"><desc>Whatsapp</desc><path fill-rule="evenodd" clip-rule="evenodd" d="M55.6702 13.0674C66.4592 13.0714 76.586 17.2715 84.2004 24.8953C91.816 32.519 96.0067 42.6512 96 53.4294C95.9906 75.6655 77.8968 93.7592 55.6689 93.7592H55.6527C48.9038 93.7565 42.2705 92.0635 36.3801 88.8499L15 94.4576L20.7222 73.558C17.1936 67.4429 15.3364 60.5041 15.3391 53.3958C15.3472 31.1584 33.441 13.0674 55.6702 13.0674ZM67.1819 58.39C68.1064 58.7265 73.0601 61.1636 74.0681 61.6683C74.2629 61.7658 74.4452 61.854 74.6143 61.9358C75.32 62.277 75.7963 62.5074 75.9993 62.8472C76.2509 63.2671 76.2509 65.2857 75.4112 67.6394C74.5714 69.9932 70.5462 72.141 68.6097 72.4303C66.8723 72.6901 64.676 72.7977 62.2617 72.0307C60.7976 71.5664 58.9216 70.9473 56.5167 69.9084C47.0657 65.827 40.6798 56.6657 39.4769 54.94C39.3931 54.8198 39.3345 54.7357 39.3017 54.6919L39.298 54.6869C38.7795 53.997 35.1864 49.216 35.1864 44.2676C35.1864 39.6279 37.4646 37.1957 38.5146 36.0747C38.5872 35.9972 38.6539 35.9259 38.7136 35.8606C39.6382 34.8513 40.7296 34.5997 41.4011 34.5997C42.0727 34.5997 42.7455 34.6051 43.3323 34.6347C43.4048 34.6383 43.4803 34.6378 43.5582 34.6374C44.1458 34.6338 44.8775 34.6294 45.5999 36.364C45.8788 37.034 46.2874 38.0286 46.7181 39.0768C47.5841 41.1847 48.5392 43.5093 48.7073 43.8464C48.9589 44.3511 49.1271 44.9391 48.7907 45.612C48.7395 45.7141 48.6923 45.8104 48.6472 45.9024C48.3954 46.4155 48.2095 46.7942 47.7827 47.2929C47.6152 47.4887 47.4419 47.6996 47.2687 47.9107C46.9214 48.3337 46.574 48.7569 46.2714 49.0585C45.7668 49.5605 45.2419 50.1055 45.83 51.1148C46.4181 52.1228 48.4408 55.4226 51.4365 58.0953C54.6557 60.9679 57.4542 62.1816 58.8734 62.7971C59.1509 62.9175 59.3757 63.0149 59.5406 63.0975C60.5473 63.6022 61.1354 63.5187 61.7234 62.8458C62.3115 62.173 64.2427 59.904 64.9142 58.8947C65.5858 57.8854 66.2587 58.0536 67.1819 58.39Z"></path></svg>