<?xml version="1.0" encoding="UTF-8"?> <!-- Generator: Adobe Illustrator 21.1.0, SVG Export Plug-In . SVG Version: 6.00 Build 0) --> <svg xmlns="http://www.w3.org/2000/svg" xmlns:xlink="http://www.w3.org/1999/xlink" id="Layer_1" x="0px" y="0px" viewBox="0 0 100.176 100.178" style="enable-background:new 0 0 100.176 100.178;" xml:space="preserve"> <path d="M86.892,21.638H70.136l-1.567-5.716c-0.111-0.409-0.392-0.751-0.77-0.942c-0.378-0.191-0.82-0.214-1.214-0.062L48.733,21.77 c-0.187-0.084-0.393-0.132-0.611-0.132H26.666c-0.407,0-0.797,0.166-1.08,0.459L12.364,35.809c-0.286,0.225-0.479,0.541-0.546,0.892 c-0.008,0.036-0.01,0.074-0.015,0.111c-0.005,0.048-0.013,0.094-0.014,0.143c-0.001,0.019-0.006,0.038-0.006,0.057c0,0,0,0,0,0 c0,0.001,0,0.002,0,0.004V83.86c0,0.828,0.671,1.5,1.5,1.5H80.2c0.828,0,1.5-0.672,1.5-1.5v-5.188h5.191c0.828,0,1.5-0.672,1.5-1.5 V23.138C88.392,22.309,87.72,21.638,86.892,21.638z M70.832,35.517h-49.54l44.822-17.206L70.832,35.517z M27.303,24.638h13.959 l-22.161,8.507L27.303,24.638z M78.7,82.36H14.783V38.517H78.7V82.36z M85.392,75.672H81.7V37.017c0-0.829-0.672-1.5-1.5-1.5h-6.259 l-2.983-10.879h14.433V75.672z"></path> </svg> 