<svg class="t-sociallinks__svg" version="1.1" id="Layer_1" xmlns="http://www.w3.org/2000/svg" xmlns:xlink="http://www.w3.org/1999/xlink" x="0px" y="0px" width="25px" height="25px" viewBox="0 0 48 48" enable-background="new -455 257 48 48" xml:space="preserve"><desc>Youtube</desc><path d="M43.9 15.3c-.4-3.1-2.2-5-5.3-5.3-3.6-.3-11.4-.5-15-.5-7.3 0-10.6.2-14.1.5-3.3.3-4.8 1.8-5.4 4.9-.4 2.1-.6 4.1-.6 8.9 0 4.3.2 6.9.5 9.2.4 3.1 2.5 4.8 5.7 5.1 3.6.3 10.9.5 14.4.5s11.2-.2 14.7-.6c3.1-.4 4.6-2 5.1-5.1 0 0 .5-3.3.5-9.1 0-3.3-.2-6.4-.5-8.5zM19.7 29.8V18l11.2 5.8-11.2 6z"></path></svg>